<svg width="24" height="24" viewBox="0 0 24 24" fill="none" xmlns="http://www.w3.org/2000/svg">
<path d="M14.8594 6.89775H19.5352V8.03213H14.8594V6.89775ZM10.1742 11.386C11.2078 10.8915 11.7492 10.1392 11.7492 8.97666C11.7492 6.67744 10.0383 6.11963 8.0625 6.11963H2.625V17.6603H8.21484C10.3102 17.6603 12.2766 16.6524 12.2766 14.3087C12.2766 12.8603 11.5922 11.7892 10.1742 11.386V11.386ZM5.16094 8.08838H7.53984C8.45625 8.08838 9.27891 8.34385 9.27891 9.40791C9.27891 10.3876 8.63906 10.7813 7.73203 10.7813H5.16094V8.08838ZM7.86797 15.7009H5.15859V12.5228H7.92188C9.0375 12.5228 9.74297 12.9892 9.74297 14.1704C9.74297 15.3329 8.90156 15.7009 7.86797 15.7009V15.7009ZM21.3633 13.6032C21.3633 11.1306 19.9172 9.07041 17.3016 9.07041C14.7586 9.07041 13.0289 10.9853 13.0289 13.4954C13.0289 16.097 14.6672 17.8829 17.3016 17.8829C19.2961 17.8829 20.5875 16.9853 21.2086 15.0704H19.1859C18.9656 15.7853 18.0703 16.1603 17.3742 16.1603C16.0289 16.1603 15.3258 15.3728 15.3258 14.0345H21.3469C21.3539 13.8962 21.3633 13.7509 21.3633 13.6032V13.6032ZM15.3258 12.586C15.3984 11.4868 16.132 10.8001 17.2289 10.8001C18.382 10.8001 18.9586 11.4774 19.0594 12.586H15.3258Z" fill="#232323" fill-opacity="0.5"/>
</svg>
