<svg width="24" height="24" viewBox="0 0 24 24" fill="none" xmlns="http://www.w3.org/2000/svg">
<path d="M8.94507 21.9999C8.133 22.0056 7.3392 21.759 6.67334 21.2942C6.00748 20.8293 5.50243 20.1691 5.22798 19.4048C4.95352 18.6405 4.92321 17.8098 5.14124 17.0276C5.35926 16.2453 5.81485 15.55 6.44507 15.0379C5.99229 14.6714 5.62714 14.2084 5.37631 13.6827C5.12547 13.157 4.99529 12.5819 4.99529 11.9994C4.99529 11.4169 5.12547 10.8418 5.37631 10.3161C5.62714 9.79035 5.99229 9.32734 6.44507 8.96089C5.81407 8.44919 5.35774 7.75399 5.13924 6.97153C4.92074 6.18907 4.95088 5.35803 5.22547 4.59345C5.50007 3.82886 6.00554 3.16855 6.67194 2.70389C7.33834 2.23923 8.1327 1.99321 8.94507 1.99989H15.0551C15.8674 1.99321 16.6618 2.23923 17.3282 2.70389C17.9946 3.16855 18.5001 3.82886 18.7747 4.59345C19.0493 5.35803 19.0794 6.18907 18.8609 6.97153C18.6424 7.75399 18.1861 8.44919 17.5551 8.96089C18.1859 9.47277 18.642 10.168 18.8604 10.9505C19.0788 11.7329 19.0486 12.5639 18.7741 13.3285C18.4995 14.093 17.9942 14.7534 17.3279 15.2182C16.6616 15.683 15.8674 15.9292 15.0551 15.9229C14.2861 15.9238 13.5335 15.7 12.8901 15.2789V18.0789C12.8856 19.1216 12.4677 20.1199 11.7282 20.855C10.9886 21.59 9.98776 22.0018 8.94507 21.9999V21.9999ZM8.92307 15.9239C8.49876 15.9306 8.08589 16.0625 7.73633 16.3031C7.38677 16.5438 7.11611 16.8823 6.95836 17.2763C6.80061 17.6702 6.76279 18.102 6.84966 18.5174C6.93654 18.9327 7.14423 19.3132 7.44664 19.6109C7.74905 19.9086 8.1327 20.1103 8.54939 20.1907C8.96607 20.271 9.39721 20.2264 9.78865 20.0625C10.1801 19.8986 10.5143 19.6227 10.7494 19.2694C10.9846 18.9161 11.11 18.5013 11.1101 18.0769V15.9239H8.92207H8.92307V15.9239ZM15.0561 9.84689C14.6307 9.84906 14.2155 9.97718 13.8629 10.2151C13.5103 10.453 13.2361 10.79 13.0748 11.1836C12.9135 11.5772 12.8725 12.0097 12.9568 12.4266C13.0411 12.8435 13.247 13.2261 13.5485 13.5261C13.8501 13.8261 14.2337 14.0301 14.6511 14.1123C15.0684 14.1945 15.5007 14.1512 15.8935 13.9879C16.2863 13.8247 16.6219 13.5487 16.858 13.1949C17.0941 12.8411 17.2201 12.4252 17.2201 11.9999C17.2179 11.4274 16.9888 10.8792 16.5829 10.4756C16.177 10.0719 15.6275 9.84583 15.0551 9.84689H15.0561V9.84689ZM8.94607 9.84689C8.37506 9.84384 7.82622 10.0677 7.4203 10.4694C7.01438 10.871 6.78462 11.4174 6.78157 11.9884C6.77852 12.5594 7.00242 13.1082 7.40403 13.5142C7.80564 13.9201 8.35206 14.1498 8.92307 14.1529H11.1101V9.84689H8.94607V9.84689ZM12.8901 3.76989V8.07689H15.0541C15.6111 8.07949 16.1474 7.86631 16.5507 7.48207C16.954 7.09783 17.1928 6.57237 17.2171 6.01589V6.45089V5.92289C17.2147 5.35105 16.9859 4.80345 16.5807 4.39994C16.1755 3.99643 15.6269 3.76988 15.0551 3.76989H12.8901ZM8.94407 3.76989C8.37306 3.76989 7.82543 3.99672 7.42167 4.40049C7.0179 4.80425 6.79107 5.35188 6.79107 5.92289C6.79107 6.4939 7.0179 7.04152 7.42167 7.44529C7.82543 7.84905 8.37306 8.07589 8.94407 8.07589H11.1101V3.76989H8.94407Z" fill="#232323" fill-opacity="0.5"/>
</svg>
