<svg width="80" height="80" viewBox="0 0 80 80" fill="none" xmlns="http://www.w3.org/2000/svg">
<path d="M58.3643 71.8348C58.1401 71.8818 57.9524 71.9175 57.8056 71.9437L55.2043 65.874C55.4741 65.8158 55.8211 65.7338 56.226 65.6228C57.2172 65.351 58.562 64.903 59.9736 64.1972C62.7849 62.7916 65.9259 60.3282 66.9804 56.1399C68.0195 53.0056 67.4928 50.1401 66.7182 48.0744C66.3298 47.0389 65.877 46.1978 65.5204 45.6143C65.3419 45.3222 65.187 45.0938 65.0756 44.937C65.0198 44.8585 64.9749 44.7978 64.9432 44.756C64.9274 44.7351 64.9148 44.7188 64.906 44.7074L64.8954 44.6939L64.8922 44.6898L64.8911 44.6885L64.8907 44.688C64.8906 44.6878 64.8904 44.6877 64.5 45L64.8904 44.6877L64.7403 44.5H64.5H45.5V10.5H79.5V45.5C79.5 57.3094 73.9792 63.9129 68.4727 67.584C65.71 69.4258 62.944 70.5327 60.8671 71.1788C59.8294 71.5016 58.9661 71.7088 58.3643 71.8348Z" stroke="#D70069" stroke-opacity="0.5"/>
<path d="M13.3643 71.8348C13.1401 71.8818 12.9524 71.9175 12.8056 71.9437L10.2043 65.874C10.4741 65.8158 10.8211 65.7338 11.226 65.6228C12.2172 65.351 13.562 64.903 14.9736 64.1972C17.7849 62.7916 20.9259 60.3282 21.9804 56.1399C23.0195 53.0056 22.4928 50.1401 21.7182 48.0744C21.3298 47.0389 20.877 46.1978 20.5204 45.6143C20.3419 45.3222 20.187 45.0938 20.0756 44.937C20.0198 44.8585 19.9749 44.7978 19.9432 44.756C19.9274 44.7351 19.9149 44.7188 19.906 44.7074L19.8954 44.6939L19.8922 44.6898L19.8911 44.6885L19.8907 44.688C19.8906 44.6878 19.8904 44.6877 19.5 45L19.8904 44.6877L19.7403 44.5H19.5H0.5V10.5H34.5V45.5C34.5 57.3094 28.9792 63.9129 23.4727 67.584C20.71 69.4258 17.944 70.5327 15.8671 71.1788C14.8294 71.5016 13.9661 71.7088 13.3643 71.8348Z" stroke="#D70069" stroke-opacity="0.5"/>
</svg>
